# xmcd
#
# Track frame offsets: 
#        150
#        19852
#        40745
#        56374
#        77385
#        93214
#        111043
#        127706
#        143427
#        163341
#        179946
#        194304
#        212074
#        229121
#        245781
#        265783
#        283698
#        300130
#        314668
#        332146
#
# Disc length: 4728 seconds
#
# Revision: 0
# Processed by: cddbd v1.5.2PL0 Copyright (c) Steve Scherf et al.
# Submitted via: ExactAudioCopy v0.95a5
#
DISCID=11127614
DTITLE=Григорий Лепс - Пенсне
DYEAR=2011
DGENRE=Blues
TTITLE0=Научись летать
TTITLE1=Вавилон
TTITLE2=Клуб одиноких сердец подполковника Пеппера
TTITLE3=Двое у окна
TTITLE4=Настоящая женщина
TTITLE5=Зима
TTITLE6=Черная кошка
TTITLE7=Зачем тебе я
TTITLE8=Самый лучший день
TTITLE9=У берез и сосен
TTITLE10=Бей прямо в сердце
TTITLE11=Не жди меня
TTITLE12=Обернитесь
TTITLE13=Измены
TTITLE14=Птица - молодость моя
TTITLE15=Я тебе не верю
TTITLE16=Она не твоя
TTITLE17=Я тебя не люблю
TTITLE18=Уходи красиво
TTITLE19=Ну и что
EXTD=
EXTT0=
EXTT1=
EXTT2=
EXTT3=
EXTT4=
EXTT5=
EXTT6=
EXTT7=
EXTT8=
EXTT9=
EXTT10=
EXTT11=
EXTT12=
EXTT13=
EXTT14=
EXTT15=
EXTT16=
EXTT17=
EXTT18=
EXTT19=
PLAYORDER=
